<svg width="664" height="665" viewBox="0 0 664 665" fill="none" xmlns="http://www.w3.org/2000/svg">
<g clip-path="url(#clip0_68_3)">
<path opacity="0.2" d="M663.459 504.085V333.877H663.999V331.998H663.459V161.791C663.449 120.049 647.205 79.9474 618.163 49.9658V46.8775H663.459V44.9858H619.475L661.709 2.52078L660.422 1.23396L618.201 43.699V2.1476H616.323V44.9858H613.131C583.581 16.7383 544.283 0.962883 503.404 0.937988H160.042C119.18 0.976116 79.9032 16.7505 50.3661 44.9858H47.162V2.1476H45.2961V43.6604L3.0755 1.19535L1.78868 2.48217L44.0092 44.9472H2.67659V46.826H45.2961V49.9658C16.25 79.9451 0.00579511 120.048 0 161.791V504.085C0.00579511 545.827 16.25 585.93 45.2961 615.909V619.049H2.67659V620.928H43.9706L1.75008 663.393L3.0369 664.68L45.2575 622.215V663.728H47.1234V620.889H50.3275C79.8742 649.134 119.167 664.909 160.042 664.937H503.404C544.27 664.902 583.552 649.128 613.093 620.889H616.284V663.728H618.163V622.215L660.383 664.68L661.67 663.393L619.437 620.928H663.999V619.049H618.163V615.909C647.198 585.923 663.441 545.825 663.459 504.085ZM661.58 504.085C661.577 544.662 646.041 583.698 618.163 613.181V451.904H660.911V450.038H618.163V333.877H661.58V504.085ZM449.525 450.038L448.238 448.751C450.374 446.581 452.446 444.35 454.453 442.06V450.038H449.525ZM454.453 451.917V454.993L451.391 451.917H454.453ZM210.073 450.038V443.282C211.746 445.148 213.471 446.963 215.221 448.751L213.934 450.038H210.073ZM212.068 451.917L210.073 453.899V451.904L212.068 451.917ZM213.934 215.837L215.221 217.124C213.471 218.912 211.746 220.74 210.073 222.593V215.837H213.934ZM210.073 213.958V211.977L212.068 213.971L210.073 213.958ZM454.453 215.837V223.815C452.446 221.525 450.374 219.294 448.238 217.124L449.525 215.837H454.453ZM451.391 213.958L454.453 210.883V213.958H451.391ZM454.453 331.985H450.052C449.857 301.112 437.666 271.524 416.055 249.474L446.938 218.462C449.512 221.096 452.026 223.828 454.479 226.659L454.453 331.985ZM456.319 228.885C480.321 257.894 493.511 294.334 493.637 331.985H456.319V228.885ZM414.729 250.761C436.001 272.447 448 301.558 448.187 331.934H333.981L414.729 250.761ZM332.669 330.544V215.837C362.941 216.048 391.925 228.115 413.404 249.449L332.669 330.544ZM330.79 330.544L250.042 249.359C271.545 228.064 300.528 216.032 330.79 215.837V330.544ZM329.503 331.831H215.272C215.466 301.456 227.464 272.348 248.729 250.658L329.503 331.831ZM329.503 333.71L248.755 414.882C227.49 393.193 215.492 364.084 215.298 333.71H329.503ZM330.79 334.997V450.038C300.512 449.826 271.523 437.754 250.042 416.414L330.79 334.997ZM332.669 334.997L413.404 416.169C391.969 437.601 362.979 449.763 332.669 450.038V334.997ZM333.956 333.71H448.148C447.961 364.086 435.962 393.197 414.691 414.882L333.956 333.71ZM445.587 217.124L414.704 248.149C397.752 231.332 376.09 220.063 352.589 215.837H444.275L445.587 217.124ZM332.669 213.958V170.116C373.451 170.316 412.636 185.99 442.306 213.971L332.669 213.958ZM330.79 213.958H221.153C250.817 185.969 290.006 170.294 330.79 170.103V213.958ZM310.857 215.837C287.349 220.064 265.678 231.332 248.717 248.149L217.833 217.124L219.12 215.837H310.857ZM216.546 218.411L247.43 249.423C225.809 271.466 213.615 301.058 213.432 331.934H210.099V225.437C212.171 223.056 214.32 220.727 216.546 218.475V218.411ZM208.208 331.934H169.77C169.914 293.706 183.523 256.751 208.208 227.56V331.934ZM208.208 333.813V438.187C183.523 408.996 169.914 372.041 169.77 333.813H208.208ZM210.073 333.813H213.406C213.587 364.685 225.781 394.274 247.404 416.311L216.52 447.336C214.294 445.084 212.145 442.755 210.086 440.374L210.073 333.813ZM217.872 448.751L248.755 417.726C265.707 434.537 287.362 445.804 310.857 450.038H219.184L217.872 448.751ZM330.79 451.917V495.772C290.006 495.581 250.817 479.906 221.153 451.917H330.79ZM332.669 451.917H442.306C412.636 479.898 373.451 495.572 332.669 495.772V451.917ZM352.589 450.038C376.099 445.817 397.771 434.548 414.729 417.726L445.613 448.751L444.326 450.038H352.589ZM446.913 447.465L416.029 416.439C437.643 394.397 449.835 364.812 450.027 333.941H454.428V439.268C452.026 442.047 449.521 444.779 446.913 447.465ZM456.319 333.941H493.637C493.511 371.592 480.321 408.032 456.319 437.041V333.941ZM495.554 332.063C495.411 293.201 481.511 255.645 456.319 226.054V215.837H555.276C573.903 251.725 583.668 291.551 583.753 331.985L495.554 332.063ZM456.319 214.035V209.068L510.597 154.52C527.98 172.126 542.698 192.176 554.285 214.035H456.319ZM456.319 206.417V112.66C475.677 123.752 493.482 137.355 509.272 153.117L456.319 206.417ZM454.453 208.296L448.753 214.035H445.034C414.881 184.857 374.627 168.446 332.669 168.225V79.5884C375.332 79.6821 417.26 90.7046 454.453 111.605V208.296ZM330.79 168.225C288.842 168.423 248.589 184.806 218.425 213.958H214.706L210.073 209.3V110.987C247.008 90.475 288.542 79.6676 330.79 79.5756V168.225ZM208.208 207.434L154.161 153.117C170.252 137.067 188.431 123.255 208.208 112.055V207.434ZM208.208 210.098V213.958H109.122C120.705 192.096 135.424 172.045 152.81 154.443L208.208 210.098ZM208.208 215.85V224.729C182.35 254.5 168.043 292.566 167.891 331.998H79.7056C79.789 291.56 89.5537 251.729 108.183 215.837L208.208 215.85ZM167.891 333.877C168.043 373.309 182.35 411.376 208.208 441.146V450.038H108.183C89.5557 414.15 79.7911 374.324 79.7056 333.89L167.891 333.877ZM208.208 451.904V455.765L152.874 511.394C135.488 493.791 120.77 473.741 109.187 451.878L208.208 451.904ZM208.208 458.441V553.82C188.431 542.62 170.252 528.808 154.161 512.758L208.208 458.441ZM210.073 456.562L214.706 451.904H218.425C248.587 481.061 288.84 497.449 330.79 497.651V586.313C288.542 586.21 247.009 575.398 210.073 554.888V456.562ZM332.669 497.651C374.617 497.45 414.869 481.067 445.034 451.917H448.753L454.453 457.656V554.271C417.259 575.169 375.332 586.195 332.669 586.3V497.651ZM456.319 459.535L509.272 512.771C493.476 528.526 475.672 542.129 456.319 553.228V459.535ZM456.319 456.884V451.917H554.285C542.698 473.777 527.98 493.827 510.597 511.432L456.319 456.884ZM456.319 450.038V439.898C481.511 410.307 495.411 372.752 495.554 333.89H583.753C583.668 374.324 573.903 414.15 555.276 450.038H456.319ZM585.619 333.89H616.284V450.038H557.386C575.862 414.1 585.539 374.287 585.619 333.877V333.89ZM585.619 332.011C585.541 291.597 575.864 251.78 557.386 215.837H616.284V331.985L585.619 332.011ZM556.395 213.984C544.651 191.619 529.664 171.113 511.923 153.13L615.1 49.4511L615.19 49.5283C615.576 49.9272 615.962 50.3519 616.348 50.8151V213.971L556.395 213.984ZM613.685 48.1514L510.597 151.792C494.435 135.66 476.179 121.771 456.319 110.498V46.8646H612.346L613.685 48.1514ZM454.453 109.456C417.202 88.7297 375.298 77.8021 332.669 77.6968V46.8131H454.453V109.456ZM332.669 44.9858V2.81674H454.453V44.9858H332.669ZM330.79 44.9858H210.073V2.81674H330.79V44.9858ZM330.79 46.8646V77.7483C288.576 77.8471 247.064 88.5603 210.073 108.902V46.8646H330.79ZM208.208 109.919C187.938 121.29 169.32 135.383 152.874 151.805L49.7871 48.1643L51.0739 46.8775H208.208V109.919ZM48.333 49.5283L48.4102 49.4511L151.536 153.117C133.787 171.096 118.796 191.603 107.051 213.971H47.162V50.7637C47.6124 50.3519 47.9341 49.9272 48.333 49.5283ZM106.073 215.837C87.5987 251.772 77.9223 291.58 77.8398 331.985H47.162V215.837H106.073ZM77.8398 333.864C77.9183 374.278 87.5948 414.096 106.073 450.038H47.162V333.877L77.8398 333.864ZM107.051 451.891C118.796 474.259 133.787 494.766 151.536 512.745L48.4102 616.424L48.333 616.347C47.9341 615.948 47.5609 615.523 47.162 615.06V451.904L107.051 451.891ZM49.7742 617.724L152.861 514.083C169.311 530.506 187.927 544.602 208.195 555.982V619.036H51.1125L49.7742 617.724ZM210.073 557.025C247.064 577.366 288.576 588.08 330.79 588.178V619.062H210.073V557.025ZM330.79 620.889V663.058H210.073V620.889H330.79ZM332.669 620.889H454.453V663.058H332.669V620.889ZM332.669 619.011V588.127C375.298 588.022 417.202 577.094 454.453 556.368V618.959L332.669 619.011ZM456.319 555.377C476.179 544.104 494.435 530.216 510.597 514.083L613.685 617.724L612.398 619.011H456.319V555.377ZM615.1 616.347L615.01 616.424L511.897 512.758C529.639 494.775 544.625 474.269 556.37 451.904H616.258V615.112L615.1 616.347ZM661.58 161.791V331.998H618.163V215.837H660.911V213.958H618.163V52.7325C646.032 82.2061 661.567 121.227 661.58 161.791ZM610.39 44.9472H456.319V2.81674H503.404C543.114 2.84607 581.34 17.9129 610.39 44.9858V44.9472ZM160.003 2.77814H208.208V44.9472H53.0685C82.1211 17.8902 120.341 2.83755 160.042 2.81674L160.003 2.77814ZM1.86589 504.085V161.791C1.87391 121.212 17.4138 82.1759 45.2961 52.6939V213.932H2.57364V215.837H45.2961V331.985H2.41922V333.864H45.2961V450.038H2.57364V451.917H45.2961V613.156C17.4199 583.68 1.88049 544.654 1.86589 504.085ZM53.0685 620.928H208.208V663.097H160.042C120.331 663.055 82.1092 647.975 53.0685 620.889V620.928ZM503.456 663.097H456.319V620.889H610.39C581.338 647.96 543.114 663.027 503.404 663.058L503.456 663.097Z" fill="url(#paint0_radial_68_3)"/>
<mask id="mask0_68_3" style="mask-type:alpha" maskUnits="userSpaceOnUse" x="-13" y="0" width="592" height="665">
<path d="M578.988 0H-12.7969V664.938H578.988V0Z" fill="url(#paint1_linear_68_3)"/>
</mask>
<g mask="url(#mask0_68_3)">
<path d="M100.469 253.965C100.469 248.837 100.469 246.274 101.483 244.322C102.337 242.678 103.678 241.337 105.322 240.483C107.273 239.469 109.837 239.469 114.964 239.469H164.753C169.881 239.469 172.444 239.469 174.396 240.483C176.04 241.337 177.381 242.678 178.235 244.322C179.249 246.274 179.249 248.837 179.249 253.965V303.754C179.249 308.881 179.249 311.445 178.235 313.396C177.381 315.04 176.04 316.381 174.396 317.235C172.444 318.249 169.881 318.249 164.753 318.249H114.964C109.837 318.249 107.273 318.249 105.322 317.235C103.678 316.381 102.337 315.04 101.483 313.396C100.469 311.445 100.469 308.881 100.469 303.754V253.965Z" fill="white" fill-opacity="0.1"/>
<path d="M164.753 239H114.964H114.942C112.397 239 110.459 239 108.913 239.129C107.358 239.258 106.16 239.519 105.106 240.067C103.376 240.966 101.965 242.376 101.066 244.106C100.519 245.16 100.257 246.359 100.128 247.914C100 249.459 100 251.398 100 253.942V253.965V303.754V303.776C100 306.321 100 308.259 100.128 309.805C100.257 311.36 100.519 312.558 101.066 313.612C101.965 315.342 103.376 316.753 105.106 317.651C106.16 318.199 107.358 318.46 108.913 318.59C110.458 318.718 112.397 318.718 114.942 318.718H114.964H164.753H164.776C167.321 318.718 169.259 318.718 170.804 318.59C172.36 318.46 173.558 318.199 174.612 317.651C176.342 316.753 177.753 315.342 178.651 313.612C179.199 312.558 179.46 311.36 179.59 309.805C179.718 308.259 179.718 306.321 179.718 303.776V303.754V253.965V253.942C179.718 251.398 179.718 249.459 179.59 247.914C179.46 246.359 179.199 245.16 178.651 244.106C177.753 242.376 176.342 240.966 174.612 240.067C173.558 239.519 172.36 239.258 170.804 239.129C169.259 239 167.321 239 164.776 239H164.753Z" stroke="white" stroke-opacity="0.2" stroke-width="0.937853"/>
<mask id="mask1_68_3" style="mask-type:luminance" maskUnits="userSpaceOnUse" x="112" y="254" width="56" height="56">
<path d="M167.056 254.667H112.66V309.062H167.056V254.667Z" fill="white"/>
</mask>
<g mask="url(#mask1_68_3)">
<path d="M116.06 254.667H163.656L159.327 303.539L139.806 309.062L120.394 303.537L116.06 254.667ZM154.794 264.669L124.922 264.662L125.405 270.605L148.353 270.609L147.775 276.765H132.725L133.269 282.597H147.281L146.451 290.581L139.856 292.404L133.156 290.568L132.73 285.785H126.815L127.472 294.523L139.858 298.383L152.036 294.915L154.794 264.671V264.669Z" fill="white"/>
</g>
<path d="M458.243 73.469H408.537C400.767 73.469 394.469 79.7673 394.469 87.5368V137.243C394.469 145.013 400.767 151.311 408.537 151.311H458.243C466.013 151.311 472.311 145.013 472.311 137.243V87.5368C472.311 79.7673 466.013 73.469 458.243 73.469Z" fill="white" fill-opacity="0.1"/>
<path d="M458.243 73H408.537C400.509 73 394 79.5083 394 87.5368V137.243C394 145.272 400.509 151.78 408.537 151.78H458.243C466.272 151.78 472.78 145.272 472.78 137.243V87.5368C472.78 79.5084 466.272 73 458.243 73Z" stroke="white" stroke-opacity="0.2" stroke-width="0.937853"/>
<path d="M436.852 118.716C438.42 121.276 440.46 123.158 444.068 123.158C447.099 123.158 449.035 121.643 449.035 119.55C449.035 117.042 447.046 116.153 443.71 114.694L441.881 113.91C436.603 111.661 433.096 108.844 433.096 102.888C433.096 97.4018 437.276 93.2258 443.809 93.2258C448.459 93.2258 451.803 94.8448 454.212 99.0828L448.516 102.74C447.262 100.491 445.909 99.6048 443.809 99.6048C441.666 99.6048 440.308 100.964 440.308 102.74C440.308 104.934 441.667 105.823 444.806 107.182L446.634 107.965C452.849 110.63 456.358 113.347 456.358 119.456C456.358 126.042 451.185 129.65 444.237 129.65C437.444 129.65 433.055 126.412 430.908 122.169L436.852 118.716ZM411.013 119.35C412.162 121.389 413.207 123.112 415.72 123.112C418.123 123.112 419.639 122.172 419.639 118.516V93.6438H426.954V118.615C426.954 126.189 422.513 129.636 416.031 129.636C410.175 129.636 406.783 126.605 405.058 122.955L411.013 119.35Z" fill="white"/>
<path fill-rule="evenodd" clip-rule="evenodd" d="M176.823 116.744C176.047 115.155 175.182 113.543 174.23 111.925C173.279 110.308 172.288 108.764 171.272 107.303C169.431 107.143 167.524 107.043 165.567 107.011C163.611 106.979 161.701 107.017 159.856 107.117C158.792 108.544 157.752 110.055 156.749 111.64C155.745 113.227 154.828 114.81 154 116.372C154.776 117.96 155.641 119.572 156.593 121.19C157.545 122.809 158.538 124.356 159.556 125.818C161.396 125.979 163.302 126.078 165.256 126.11C167.211 126.142 169.119 126.104 170.963 126.004C172.028 124.575 173.071 123.062 174.075 121.474C175.079 119.888 175.996 118.305 176.823 116.744Z" fill="white" fill-opacity="0.2"/>
<path d="M188.243 75.469H139.475C131.187 75.469 124.469 82.1872 124.469 90.4746V139.243C124.469 147.53 131.187 154.249 139.475 154.249H188.243C196.53 154.249 203.249 147.53 203.249 139.243V90.4746C203.249 82.1872 196.53 75.469 188.243 75.469Z" fill="white" fill-opacity="0.1"/>
<path d="M188.243 75H139.475C130.928 75 124 81.9282 124 90.4746V139.243C124 147.789 130.928 154.717 139.475 154.717H188.243C196.789 154.717 203.717 147.789 203.717 139.243V90.4746C203.717 81.9282 196.789 75 188.243 75Z" stroke="white" stroke-opacity="0.2" stroke-width="0.937853"/>
<path d="M163.682 125.702C180.254 125.972 193.768 121.338 193.865 115.351C193.963 109.364 180.607 104.292 164.035 104.022C147.462 103.752 133.949 108.387 133.851 114.373C133.754 120.36 147.109 125.432 163.682 125.702Z" stroke="white" stroke-width="2.73905"/>
<path d="M153.847 120.117C161.912 133.831 172.932 142.594 178.461 139.69C183.989 136.786 181.933 123.314 173.868 109.6C165.803 95.8862 154.783 87.1231 149.254 90.0273C143.726 92.9314 145.782 106.403 153.847 120.117Z" stroke="white" stroke-width="2.73905"/>
<path d="M154.025 109.277C145.518 122.721 143.024 136.118 148.455 139.201C153.886 142.284 165.186 133.884 173.693 120.44C182.2 106.996 184.694 93.5983 179.263 90.5157C173.832 87.433 162.532 95.8327 154.025 109.277Z" stroke="white" stroke-width="2.73905"/>
<path d="M163.796 120.15C166.885 120.2 169.427 117.872 169.475 114.95C169.522 112.028 167.057 109.618 163.969 109.568C160.88 109.518 158.338 111.846 158.29 114.768C158.243 117.69 160.708 120.1 163.796 120.15Z" fill="white"/>
<path d="M375.181 168.469H324.537C316.767 168.469 310.469 174.767 310.469 182.537V233.181C310.469 240.95 316.767 247.249 324.537 247.249H375.181C382.95 247.249 389.249 240.95 389.249 233.181V182.537C389.249 174.767 382.95 168.469 375.181 168.469Z" fill="white" fill-opacity="0.1"/>
<path d="M375.181 168H324.537C316.508 168 310 174.508 310 182.537V233.181C310 241.209 316.508 247.717 324.537 247.717H375.181C383.209 247.717 389.717 241.209 389.717 233.181V182.537C389.717 174.508 383.209 168 375.181 168Z" stroke="white" stroke-opacity="0.2" stroke-width="0.937853"/>
<path d="M329.727 217.044L335.641 178.999C335.684 178.717 335.815 178.456 336.015 178.252C336.215 178.049 336.474 177.914 336.755 177.866C337.036 177.818 337.325 177.861 337.581 177.987C337.837 178.113 338.047 178.317 338.18 178.569L344.54 190.501L329.727 217.044ZM371.731 226.276L366.099 191.264C366.057 191.019 365.949 190.789 365.786 190.601C365.624 190.413 365.412 190.273 365.175 190.197C364.938 190.121 364.685 190.111 364.443 190.169C364.201 190.227 363.979 190.351 363.803 190.526L328.288 226.276L347.939 237.35C348.545 237.691 349.228 237.87 349.923 237.87C350.619 237.87 351.302 237.691 351.908 237.35L371.731 226.276ZM355.762 195.723L351.21 187.015C351.095 186.796 350.923 186.612 350.711 186.484C350.5 186.356 350.257 186.289 350.01 186.289C349.762 186.289 349.52 186.356 349.308 186.484C349.097 186.612 348.924 186.796 348.809 187.015L328.826 222.824L355.762 195.723Z" fill="white"/>
<path d="M527.181 229.469H476.537C468.767 229.469 462.469 235.767 462.469 243.537V294.181C462.469 301.95 468.767 308.249 476.537 308.249H527.181C534.95 308.249 541.249 301.95 541.249 294.181V243.537C541.249 235.767 534.95 229.469 527.181 229.469Z" fill="white" fill-opacity="0.1"/>
<path d="M527.181 229H476.537C468.508 229 462 235.508 462 243.537V294.181C462 302.209 468.508 308.717 476.537 308.717H527.181C535.209 308.717 541.717 302.209 541.717 294.181V243.537C541.717 235.508 535.209 229 527.181 229Z" stroke="white" stroke-opacity="0.2" stroke-width="0.937853"/>
<mask id="mask2_68_3" style="mask-type:luminance" maskUnits="userSpaceOnUse" x="471" y="238" width="61" height="61">
<path d="M531.926 238.905L471.904 238.79L471.789 298.813L531.811 298.928L531.926 238.905Z" fill="white"/>
</mask>
<g mask="url(#mask2_68_3)">
<path d="M471.808 289.019C471.913 290.345 472.378 291.679 473.595 293.469C475.042 295.595 477.53 296.766 479.352 294.898C480.58 293.638 493.89 270.477 500.299 261.701C500.475 261.45 500.709 261.245 500.981 261.104C501.253 260.963 501.555 260.89 501.861 260.89C502.167 260.891 502.469 260.965 502.741 261.107C503.012 261.25 503.245 261.455 503.42 261.707C509.796 270.507 523.016 293.719 524.239 294.984C526.054 296.859 528.547 295.698 530.001 293.577C531.431 291.492 531.829 290.03 531.832 288.464C531.834 287.399 511.25 248.915 509.175 245.709C507.181 242.629 506.572 241.958 503.188 241.841L500.607 241.836C497.223 241.94 496.612 242.607 494.602 245.681C492.561 248.811 472.64 285.704 471.81 288.234L471.808 289.019Z" fill="white"/>
</g>
<path d="M339.709 316.469H277.071C272.873 316.469 269.469 319.873 269.469 324.071V386.709C269.469 390.908 272.873 394.311 277.071 394.311H339.709C343.908 394.311 347.311 390.908 347.311 386.709V324.071C347.311 319.873 343.908 316.469 339.709 316.469Z" fill="white" fill-opacity="0.1"/>
<path d="M339.709 316H277.071C272.614 316 269 319.614 269 324.071V386.709C269 391.167 272.614 394.78 277.071 394.78H339.709C344.167 394.78 347.78 391.167 347.78 386.709V324.071C347.78 319.614 344.167 316 339.709 316Z" stroke="white" stroke-opacity="0.2" stroke-width="0.937853"/>
<path fill-rule="evenodd" clip-rule="evenodd" d="M311.109 363.384V370.986C312.34 371.625 313.845 372.096 315.518 372.415C317.19 372.734 319.014 372.886 320.839 372.886C322.663 372.886 324.336 372.719 326.008 372.37C327.68 372.02 329.049 371.442 330.265 370.697C331.496 369.891 332.546 368.873 333.154 367.504C333.762 366.136 334.233 364.616 334.233 362.639C334.233 361.256 334.02 360.055 333.61 358.99C333.199 357.926 332.606 357.014 331.785 356.254C331.01 355.448 330.113 354.733 329.049 354.125C327.984 353.517 326.768 352.879 325.4 352.301C324.396 351.89 323.575 351.495 322.663 351.1C321.873 350.705 321.189 350.309 320.687 349.914C320.124 349.503 319.699 349.078 319.395 348.637C319.09 348.181 318.938 347.679 318.938 347.117C318.938 346.6 319.074 346.128 319.349 345.703C319.624 345.277 320.003 344.927 320.489 344.623C320.976 344.319 321.584 344.091 322.314 343.924C323.028 343.757 323.819 343.681 324.746 343.681C325.385 343.681 326.054 343.728 326.723 343.823C327.422 343.919 328.137 344.067 328.851 344.264C329.566 344.462 330.265 344.705 330.98 345.009C331.649 345.313 332.272 345.663 332.804 346.058V338.913C331.649 338.472 330.371 338.137 329.003 337.925C327.635 337.712 326.114 337.605 324.29 337.605C322.466 337.605 320.793 337.803 319.121 338.183C317.448 338.563 316.08 339.171 314.864 340.007C313.632 340.828 312.735 341.832 311.975 343.2C311.261 344.477 310.911 345.937 310.911 347.761C310.911 350.042 311.565 352.018 312.887 353.538C314.195 355.211 316.232 356.427 318.817 357.643C319.866 358.069 320.793 358.495 321.705 358.905C322.618 359.316 323.378 359.742 323.986 360.182C324.64 360.623 325.157 361.11 325.506 361.627C325.886 362.144 326.084 362.752 326.084 363.451C326.084 363.938 325.965 364.394 325.734 364.819C325.503 365.245 325.141 365.61 324.655 365.914C324.168 366.218 323.575 366.461 322.831 366.644C322.116 366.811 321.31 366.902 320.246 366.902C318.574 366.902 316.901 366.613 315.381 366.036C313.708 365.458 312.188 364.591 310.82 363.451L311.109 363.384ZM298.338 344.684H308.068V338.451H280.854V344.684H290.584V372.506H298.338V344.684Z" fill="white"/>
<path d="M374.181 491.469H323.537C315.767 491.469 309.469 497.767 309.469 505.537V556.181C309.469 563.95 315.767 570.249 323.537 570.249H374.181C381.95 570.249 388.249 563.95 388.249 556.181V505.537C388.249 497.767 381.95 491.469 374.181 491.469Z" fill="white" fill-opacity="0.1"/>
<path d="M374.181 491H323.537C315.508 491 309 497.508 309 505.537V556.181C309 564.209 315.508 570.717 323.537 570.717H374.181C382.209 570.717 388.717 564.209 388.717 556.181V505.537C388.717 497.508 382.209 491 374.181 491Z" stroke="white" stroke-opacity="0.2" stroke-width="0.937853"/>
<mask id="mask3_68_3" style="mask-type:luminance" maskUnits="userSpaceOnUse" x="321" y="503" width="56" height="56">
<path d="M376.209 503.66H321.66V558.209H376.209V503.66Z" fill="white"/>
</mask>
<g mask="url(#mask3_68_3)">
<path d="M348.935 504.335C333.867 504.335 321.66 516.552 321.66 531.61C321.66 543.667 329.475 553.886 340.304 557.492C341.673 557.749 342.168 556.905 342.168 556.176C342.168 555.528 342.152 553.815 342.142 551.541C334.551 553.184 332.952 547.874 332.952 547.874C331.709 544.73 329.916 543.887 329.916 543.887C327.448 542.201 330.112 542.237 330.112 542.237C332.846 542.422 334.285 545.041 334.285 545.041C336.718 549.214 340.667 548.007 342.231 547.305C342.469 545.547 343.18 544.338 343.954 543.665C337.899 542.981 331.532 540.638 331.532 530.186C331.532 527.201 332.589 524.771 334.336 522.861C334.035 522.178 333.111 519.399 334.577 515.642C334.577 515.642 336.859 514.914 342.077 518.439C344.261 517.834 346.579 517.533 348.896 517.517C351.214 517.533 353.531 517.836 355.714 518.439C360.902 514.914 363.183 515.642 363.183 515.642C364.647 519.399 363.723 522.176 363.457 522.861C365.187 524.771 366.244 527.203 366.244 530.186C366.244 540.661 359.869 542.971 353.807 543.638C354.755 544.454 355.643 546.133 355.643 548.682C355.643 552.33 355.609 555.269 355.609 556.157C355.609 556.866 356.086 557.718 357.491 557.444C368.401 553.876 376.206 543.648 376.206 531.608C376.206 516.551 363.999 504.333 348.932 504.333L348.935 504.335Z" fill="white"/>
</g>
<path d="M194.468 416.407H143.824C136.054 416.407 129.756 422.705 129.756 430.475V481.119C129.756 488.888 136.054 495.187 143.824 495.187H194.468C202.237 495.187 208.536 488.888 208.536 481.119V430.475C208.536 422.705 202.237 416.407 194.468 416.407Z" fill="white" fill-opacity="0.1"/>
<path d="M194.468 415.938H143.824C135.795 415.938 129.287 422.446 129.287 430.475V481.119C129.287 489.147 135.795 495.655 143.824 495.655H194.468C202.496 495.655 209.004 489.147 209.004 481.119V430.475C209.004 422.446 202.496 415.938 194.468 415.938Z" stroke="white" stroke-opacity="0.2" stroke-width="0.937853"/>
<path d="M194.178 438.911L170.971 480.409C170.492 481.266 169.261 481.271 168.774 480.418L145.107 438.915C144.577 437.986 145.372 436.86 146.425 437.049L169.657 441.201C169.805 441.228 169.957 441.227 170.105 441.2L192.851 437.054C193.9 436.863 194.698 437.98 194.178 438.911Z" fill="url(#paint2_linear_68_3)"/>
<path d="M180.723 431.602L163.549 434.967C163.412 434.994 163.288 435.066 163.196 435.171C163.104 435.276 163.049 435.409 163.041 435.549L161.985 453.391C161.979 453.489 161.996 453.587 162.034 453.677C162.073 453.767 162.132 453.847 162.207 453.91C162.282 453.973 162.37 454.018 162.466 454.041C162.561 454.064 162.66 454.065 162.756 454.043L167.537 452.939C167.985 452.836 168.389 453.23 168.297 453.68L166.876 460.636C166.781 461.105 167.22 461.505 167.677 461.366L170.631 460.469C171.089 460.33 171.529 460.731 171.432 461.2L169.174 472.126C169.033 472.81 169.942 473.183 170.321 472.597L170.574 472.205L184.569 444.277C184.803 443.81 184.399 443.277 183.885 443.376L178.963 444.326C178.501 444.415 178.108 443.984 178.238 443.532L181.45 432.396C181.581 431.942 181.186 431.511 180.723 431.602Z" fill="url(#paint3_linear_68_3)"/>
<path d="M527.181 386.468H476.537C468.767 386.468 462.469 392.766 462.469 400.536V451.18C462.469 458.949 468.767 465.248 476.537 465.248H527.181C534.95 465.248 541.249 458.949 541.249 451.18V400.536C541.249 392.766 534.95 386.468 527.181 386.468Z" fill="white" fill-opacity="0.1"/>
<path d="M527.181 386H476.537C468.508 386 462 392.508 462 400.537V451.181C462 459.209 468.508 465.718 476.537 465.718H527.181C535.209 465.718 541.717 459.209 541.717 451.181V400.537C541.717 392.508 535.209 386 527.181 386Z" stroke="white" stroke-opacity="0.2" stroke-width="0.937853"/>
<path d="M475.604 394.909C475.037 394.909 474.614 395.371 474.665 395.936L479.447 449.584C479.498 450.149 479.986 450.736 480.533 450.888L500.829 456.523C501.376 456.675 502.27 456.675 502.817 456.523L523.175 450.879C523.722 450.727 524.211 450.141 524.261 449.576L529.052 395.936C529.103 395.371 528.679 394.909 528.112 394.909H475.604ZM518.866 407.213C518.821 407.717 518.743 408.592 518.692 409.157L518.566 410.564C518.516 411.129 518.443 411.937 518.405 412.36C518.367 412.782 518.331 413.128 518.325 413.128C518.318 413.128 517.849 413.128 517.281 413.128H502.89C502.322 413.128 501.853 413.128 501.847 413.128C501.841 413.128 501.372 413.128 500.804 413.128H493.225C492.658 413.128 492.235 413.59 492.285 414.155L492.727 419.097C492.778 419.662 493.283 420.124 493.851 420.124H500.805C501.372 420.124 501.841 420.124 501.847 420.124C501.854 420.124 502.323 420.124 502.89 420.124H514.843C515.41 420.124 516.288 420.124 516.794 420.124C517.299 420.124 517.675 420.537 517.63 421.041C517.584 421.545 517.505 422.42 517.455 422.985L516.033 438.917C515.982 439.482 515.918 440.204 515.89 440.521C515.862 440.838 515.392 441.222 514.845 441.373L502.852 444.699C502.306 444.85 501.851 444.976 501.843 444.977C501.834 444.979 501.38 444.857 500.833 444.705L488.828 441.374C488.281 441.222 487.793 440.635 487.742 440.07L486.969 431.396C486.919 430.831 487.342 430.369 487.91 430.369H489.005C489.573 430.369 490.501 430.369 491.068 430.369H492.702C493.269 430.369 493.775 430.831 493.825 431.396L494.128 434.792C494.179 435.357 494.668 435.94 495.216 436.088L500.832 437.605C501.379 437.753 501.829 437.874 501.832 437.874C501.834 437.874 502.284 437.752 502.832 437.604L508.458 436.084C509.005 435.936 509.495 435.353 509.546 434.788L510.156 427.985C510.206 427.42 509.784 426.958 509.216 426.958H502.89C502.323 426.958 501.854 426.958 501.847 426.958C501.841 426.958 501.372 426.958 500.805 426.958H487.604C487.036 426.958 486.531 426.495 486.481 425.93L484.984 409.157C484.933 408.592 484.855 407.717 484.81 407.213C484.765 406.709 485.193 406.296 485.76 406.296H500.805C501.372 406.296 501.841 406.296 501.847 406.296C501.854 406.296 502.323 406.296 502.89 406.296H517.916C518.484 406.296 518.911 406.709 518.866 407.213Z" fill="white"/>
</g>
</g>
<defs>
<radialGradient id="paint0_radial_68_3" cx="0" cy="0" r="1" gradientUnits="userSpaceOnUse" gradientTransform="translate(332 332.938) rotate(90) scale(349.759)">
<stop stop-color="white"/>
<stop offset="1" stop-color="white" stop-opacity="0"/>
</radialGradient>
<linearGradient id="paint1_linear_68_3" x1="141.949" y1="-81.5932" x2="363.282" y2="699.638" gradientUnits="userSpaceOnUse">
<stop offset="0.416946"/>
<stop offset="0.880782" stop-opacity="0.02"/>
</linearGradient>
<linearGradient id="paint2_linear_68_3" x1="144.529" y1="440.397" x2="169.558" y2="474.388" gradientUnits="userSpaceOnUse">
<stop stop-color="white" stop-opacity="0"/>
<stop offset="1" stop-color="white"/>
</linearGradient>
<linearGradient id="paint3_linear_68_3" x1="171.81" y1="432.516" x2="176.958" y2="467.836" gradientUnits="userSpaceOnUse">
<stop offset="0.0001" stop-color="white"/>
</linearGradient>
<clipPath id="clip0_68_3">
<rect width="664" height="665" fill="white"/>
</clipPath>
</defs>
</svg>
